<?xml version="1.0" encoding="utf-8"?>
<!-- Generator: Adobe Illustrator 24.0.0, SVG Export Plug-In . SVG Version: 6.00 Build 0)  -->
<svg version="1.1" id="Capa_1" xmlns="http://www.w3.org/2000/svg" xmlns:xlink="http://www.w3.org/1999/xlink" x="0px" y="0px"
	 viewBox="0 0 512 512" style="enable-background:new 0 0 512 512;" xml:space="preserve">
<style type="text/css">
	.st0{fill:#020100;}
</style>
<g>
	<g>
		<g>
			<g>
				<path class="st0" d="M467.5,133.6h-70.6L356.2,89H200.3v66.8h-66.8v66.8H66.8v222.6c0,24.5,20,44.5,44.5,44.5h356.2
					c24.5,0,44.5-20,44.5-44.5V178.1C512,153.6,492,133.6,467.5,133.6z M289.4,423c-61.4,0-111.3-49.9-111.3-111.3
					S228,200.3,289.4,200.3s111.3,49.9,111.3,111.3S350.8,423,289.4,423z"/>
				<polygon class="st0" points="66.8,200.3 111.3,200.3 111.3,133.6 178.1,133.6 178.1,89 111.3,89 111.3,22.3 66.8,22.3 66.8,89 
					0,89 0,133.6 66.8,133.6 				"/>
				<path class="st0" d="M289.4,240.4c-39.4,0-71.2,31.8-71.2,71.2l0,0c0,39.4,31.8,71.2,71.2,71.2s71.2-31.8,71.2-71.2
					S328.8,240.4,289.4,240.4z"/>
			</g>
		</g>
	</g>
</g>
</svg>
