<?xml version="1.0" encoding="utf-8"?>
<!-- Generator: Adobe Illustrator 24.0.0, SVG Export Plug-In . SVG Version: 6.00 Build 0)  -->
<svg version="1.1" id="Capa_1" xmlns="http://www.w3.org/2000/svg" xmlns:xlink="http://www.w3.org/1999/xlink" x="0px" y="0px"
	 viewBox="0 0 430 430" style="enable-background:new 0 0 430 430;" xml:space="preserve">
<style type="text/css">
	.st0{fill:#FFFFFF;}
</style>
<path id="XMLID_471_" class="st0" d="M188.4,384c0,5-4,9-9,9h-2.7c-5,0-9-4-9-9s4-9,9-9h2.7C184.4,375,188.4,379.1,188.4,384z
	 M150.3,346h-2.7c-5,0-9,4-9,9s4,9,9,9h2.7c5,0,9-4,9-9S155.2,346,150.3,346z M284.6,185.9h1.9c5,0,9-4,9-9s-4-9-9-9h-1.9
	c-5,0-9,4-9,9S279.6,185.9,284.6,185.9z M224,328.1v82.9c0,10.5-8.5,19.1-19.1,19.1h-82.9c-3.7,0-7.1-1.1-10.1-2.9
	c-2.9,1.8-6.4,2.9-10.1,2.9H19.1C8.6,430,0,421.4,0,410.9v-82.9C0,317.5,8.6,309,19.1,309h33.4c0-0.4,0-0.7,0-1.1v-82.9
	c0-10.5,8.5-19.1,19.1-19.1h82.9c10.5,0,19.1,8.5,19.1,19.1v82.9c0,0.4,0,0.7,0,1.1h31.6C215.4,309,224,317.5,224,328.1z M103,328.1
	c0-0.6-0.5-1.1-1.1-1.1H19.1c-0.6,0-1.1,0.5-1.1,1.1v82.9c0,0.6,0.5,1.1,1.1,1.1h82.9c0.6,0,1.1-0.5,1.1-1.1V328.1z M112,311.9
	c2.9-1.8,6.4-2.9,10.1-2.9h32.3c0.6,0,1.1-0.5,1.1-1.1v-82.9c0-0.6-0.5-1.1-1.1-1.1H71.5c-0.6,0-1.1,0.5-1.1,1.1v82.9
	c0,0.6,0.5,1.1,1.1,1.1h30.5C105.6,309,109.1,310.1,112,311.9z M206,328.1c0-0.6-0.5-1.1-1.1-1.1h-82.9c-0.6,0-1.1,0.5-1.1,1.1v82.9
	c0,0.6,0.5,1.1,1.1,1.1h82.9c0.6,0,1.1-0.5,1.1-1.1V328.1z M156,152.2h1.9c5,0,9-4,9-9s-4-9-9-9H156c-5,0-9,4-9,9
	S151.1,152.2,156,152.2z M353.3,185.9c5,0,9-4,9-9s-4-9-9-9h-1.9c-5,0-9,4-9,9s4,9,9,9H353.3z M61.8,360.5h-2.7c-5,0-9,4-9,9
	s4,9,9,9h2.7c5,0,9-4,9-9S66.8,360.5,61.8,360.5z M91,235.5h-2.7c-5,0-9,4-9,9s4,9,9,9H91c5,0,9-4,9-9S95.9,235.5,91,235.5z
	 M114.3,257.5h-2.7c-5,0-9,4-9,9s4,9,9,9h2.7c5,0,9-4,9-9S119.2,257.5,114.3,257.5z M134.9,297.5h2.7c5,0,9-4,9-9s-4-9-9-9h-2.7
	c-5,0-9,4-9,9S129.9,297.5,134.9,297.5z M224.8,134.2h-1.9c-5,0-9,4-9,9s4,9,9,9h1.9c5,0,9-4,9-9S229.7,134.2,224.8,134.2z
	 M284.6,152.2h1.9c5,0,9-4,9-9s-4-9-9-9h-1.9c-5,0-9,4-9,9S279.6,152.2,284.6,152.2z M319.9,134.2H318c-5,0-9,4-9,9s4,9,9,9h1.9
	c5,0,9-4,9-9S324.9,134.2,319.9,134.2z M156,118.5h1.9c5,0,9-4,9-9s-4-9-9-9H156c-5,0-9,4-9,9S151.1,118.5,156,118.5z M319.9,167.9
	H318c-5,0-9,4-9,9s4,9,9,9h1.9c5,0,9-4,9-9S324.9,167.9,319.9,167.9z M305.8,49.4h-21.2c-5,0-9,4-9,9s4,9,9,9h21.2c5,0,9-4,9-9
	S310.8,49.4,305.8,49.4z M430,86.7v282.8c0,5-4,9-9,9H250.1c-5,0-9-4-9-9s4-9,9-9H412V95.7h-68.7c-5,0-9-4-9-9V18H127.7v161.4
	c0,5-4,9-9,9s-9-4-9-9V9c0-5,4-9,9-9h224.6c3.3-0.2,5.4,1.7,6.2,2.5l0,0c0,0,0,0,0,0c0,0,0,0,0,0c0,0,0,0,0,0c0,0,0,0,0,0
	c0,0,0,0,0,0c0,0,0,0,0.1,0.1l77.7,77.7c0,0,0,0,0.1,0.1c0,0,0,0,0,0c0,0,0,0,0,0c0,0,0,0,0,0c0,0,0,0,0,0c0,0,0,0,0,0l0,0
	c0.8,0.8,1.8,2.8,1.8,2.8C429.3,83.2,430,85.5,430,86.7z M399.3,77.7l-47-47v47H399.3z M156,185.9h1.9c5,0,9-4,9-9s-4-9-9-9H156
	c-5,0-9,4-9,9S151.1,185.9,156,185.9z M189.4,152.2h1.9c5,0,9-4,9-9s-4-9-9-9h-1.9c-5,0-9,4-9,9S184.5,152.2,189.4,152.2z
	 M227.2,49.4H156c-5,0-9,4-9,9s4,9,9,9h71.1c5,0,9-4,9-9S232.2,49.4,227.2,49.4z M189.4,118.5h1.9c5,0,9-4,9-9s-4-9-9-9h-1.9
	c-5,0-9,4-9,9S184.5,118.5,189.4,118.5z M284.6,118.5h1.9c5,0,9-4,9-9s-4-9-9-9h-1.9c-5,0-9,4-9,9S279.6,118.5,284.6,118.5z"/>
</svg>
