<?xml version="1.0" encoding="utf-8"?>
<!-- Generator: Adobe Illustrator 24.0.0, SVG Export Plug-In . SVG Version: 6.00 Build 0)  -->
<svg version="1.1" id="Capa_1" xmlns="http://www.w3.org/2000/svg" xmlns:xlink="http://www.w3.org/1999/xlink" x="0px" y="0px"
	 viewBox="0 0 434.8 434.8" style="enable-background:new 0 0 434.8 434.8;" xml:space="preserve">
<style type="text/css">
	.st0{fill:#FFFFFF;}
</style>
<path id="XMLID_1044_" class="st0" d="M165.4,267.3c0.4,5-3.2,9.3-8.2,9.8c0,0-99.4,8.7-100.2,8.7c-13.1,0-24.2-10-25.4-23.3
	L12.6,43.2c-1.2-14,9.2-26.4,23.2-27.6L213,0.1c6.7-0.6,13.4,1.5,18.6,5.9s8.4,10.5,9,17.3l8.6,97.7c0.4,5-3.2,9.3-8.2,9.7
	c-4.9,0.4-9.3-3.2-9.8-8.2l-8.6-97.7c-0.2-2-1.1-3.8-2.7-5.1c-1.5-1.3-3.5-1.9-5.4-1.7L37.3,33.5c-4.1,0.4-7.2,4-6.8,8.1l19.2,219.3
	c0.2,2,1.1,3.8,2.7,5.1c1.5,1.3,3.5,1.9,5.4,1.7l97.9-8.6C160.6,258.7,165,262.4,165.4,267.3z M176.4,99.1
	c-7.9-23.6-33.5-36.4-57.1-28.5c-23.6,7.9-36.4,33.5-28.5,57.1c1.6,4.7,6.7,7.3,11.4,5.7c4.7-1.6,7.3-6.7,5.7-11.4
	c-4.7-14.2,3-29.6,17.1-34.3c14.2-4.7,29.6,3,34.3,17.1c4.7,14.2-3,29.6-17.1,34.3c-13.9,4.6-21.4,19.6-16.8,33.5
	c1.3,3.8,4.8,6.2,8.5,6.2c0.9,0,1.9-0.1,2.8-0.5c4.7-1.6,7.3-6.7,5.7-11.4c-1.5-4.4,0.9-9.3,5.4-10.7
	C171.4,148.3,184.2,122.7,176.4,99.1z M136.3,197.3c-5,0.4-8.6,4.8-8.2,9.7l0.2,2.5c0.4,4.7,4.3,8.2,9,8.2c0.3,0,0.5,0,0.8,0
	c5-0.4,8.6-4.8,8.2-9.7l-0.2-2.5C145.7,200.5,141.3,196.9,136.3,197.3z M422.3,192.3l-19.2,219.3c-1.2,13.2-12.3,23.3-25.4,23.3
	c-0.7,0-1.5,0-2.2-0.1l-177.2-15.5c-14-1.2-24.4-13.6-23.2-27.6l19.2-219.3c0.6-6.8,3.8-12.9,9-17.3c5.2-4.4,11.8-6.5,18.6-5.9h0
	l177.2,15.5C413.1,165.9,423.5,178.3,422.3,192.3z M397.5,182.6l-177.2-15.5c0,0-0.4,0-0.6,0c-1.7,0-3.4,0.6-4.8,1.8
	c-1.5,1.3-2.5,3.1-2.7,5.1L193,393.2c-0.4,4.1,2.7,7.7,6.8,8.1l177.2,15.5c4.1,0.4,7.7-2.7,8.1-6.8l19.2-219.3
	C404.7,186.6,401.6,183,397.5,182.6z M300.7,283.1l-2.5-0.2c-4.9-0.4-9.3,3.2-9.7,8.2c-0.4,5,3.2,9.3,8.2,9.7l2.5,0.2
	c0.3,0,0.5,0,0.8,0c4.6,0,8.5-3.5,9-8.2C309.3,287.9,305.6,283.5,300.7,283.1z M372.4,298.4C372.4,298.4,372.4,298.4,372.4,298.4
	c-0.9,10.8-8.4,19.4-18.1,22.5c1,3.2,1.4,6.7,1.1,10.2c-0.6,6.9-3.8,13.1-9.1,17.6c-5.3,4.4-12,6.5-18.9,5.9
	c-3.5-0.3-6.8-1.3-9.8-2.9c-1.6,3-3.7,5.7-6.4,8c-4.7,4-10.5,6.1-16.6,6.1c-0.8,0-1.5,0-2.3-0.1c-10.8-0.9-19.5-8.4-22.5-18.1
	c-9.7,3.1-20.8,0.3-27.8-8c-4.4-5.3-6.5-12-5.9-18.9c0.3-3.5,1.3-6.8,2.9-9.8c-3-1.6-5.7-3.7-8-6.4c-4.4-5.3-6.6-12-6-18.8
	c0,0,0,0,0-0.1c0.6-6.9,3.9-13.1,9.2-17.6c2.7-2.3,5.7-3.9,9-4.9c-1-3.2-1.4-6.7-1.1-10.2c0.6-6.9,3.8-13.1,9.1-17.6
	c0,0,0.1-0.1,0.1-0.1c5.3-4.4,11.9-6.5,18.8-5.9c3.5,0.3,6.8,1.3,9.8,2.9c1.6-3,3.7-5.7,6.4-8c5.3-4.4,12-6.6,18.8-6c0,0,0,0,0.1,0
	c10.8,0.9,19.4,8.4,22.5,18.1c9.7-3.1,20.8-0.3,27.8,8c7,8.3,7.8,19.7,3.1,28.7C367.5,277.8,373.3,287.6,372.4,298.4z M347.3,288.3
	l-7.3-0.6c-3.6-0.3-6.7-2.8-7.8-6.3c-1.1-3.5,0-7.3,2.8-9.6l5.6-4.7c3.3-2.8,3.8-7.8,1-11.1c-2.8-3.3-7.8-3.8-11.1-1l-5.6,4.7
	c-2.8,2.3-6.7,2.8-9.9,1.1c-3.2-1.7-5.1-5.1-4.8-8.8l0.6-7.3c0.4-4.3-2.8-8.1-7.1-8.5c0,0,0,0,0,0c-2.1-0.2-4.1,0.5-5.7,1.8
	c-1.6,1.4-2.6,3.3-2.8,5.3l-0.6,7.3c-0.3,3.6-2.8,6.7-6.3,7.8c-3.5,1.1-7.3,0-9.6-2.8l-4.7-5.6c-1.3-1.6-3.2-2.6-5.4-2.8
	c-2.1-0.2-4.2,0.5-5.8,1.8c0,0,0,0,0,0c-1.6,1.3-2.5,3.2-2.7,5.3c-0.2,2.1,0.5,4.2,1.8,5.8l4.7,5.6c2.3,2.8,2.8,6.7,1.1,9.9
	s-5.1,5.1-8.8,4.8l-7.3-0.6c-2.1-0.2-4.1,0.5-5.8,1.8c-1.6,1.4-2.6,3.2-2.8,5.3c0,0,0,0,0,0c-0.2,2.1,0.5,4.1,1.8,5.7
	s3.3,2.6,5.3,2.8l7.3,0.6c3.6,0.3,6.7,2.8,7.8,6.3c1.1,3.5,0,7.3-2.8,9.6l-5.6,4.7c-1.6,1.3-2.6,3.2-2.8,5.4
	c-0.2,2.1,0.5,4.2,1.8,5.8c2.8,3.3,7.8,3.8,11.1,1l5.6-4.7c1.7-1.4,3.7-2.1,5.8-2.1c1.4,0,2.8,0.3,4.2,1c3.2,1.7,5.1,5.1,4.8,8.8
	l-0.6,7.3c-0.4,4.3,2.8,8.2,7.2,8.6c2.1,0.2,4.1-0.5,5.8-1.8c1.6-1.4,2.6-3.3,2.8-5.3l0.6-7.3c0.3-3.6,2.8-6.7,6.3-7.8
	c3.5-1.1,7.3,0,9.6,2.8l4.7,5.6c1.3,1.6,3.2,2.6,5.4,2.8c2.1,0.2,4.2-0.5,5.8-1.8c1.6-1.3,2.6-3.2,2.8-5.4s-0.5-4.2-1.8-5.8
	l-4.7-5.6c-2.3-2.8-2.8-6.7-1.1-9.9c1.7-3.2,5.1-5.1,8.8-4.8l7.3,0.6c4.3,0.4,8.2-2.8,8.5-7.2C354.8,292.5,351.6,288.7,347.3,288.3z
	"/>
</svg>
