<?xml version="1.0" encoding="utf-8"?>
<!-- Generator: Adobe Illustrator 24.0.0, SVG Export Plug-In . SVG Version: 6.00 Build 0)  -->
<svg version="1.1" id="Layer_1" xmlns="http://www.w3.org/2000/svg" xmlns:xlink="http://www.w3.org/1999/xlink" x="0px" y="0px"
	 viewBox="0 0 512 512" style="enable-background:new 0 0 512 512;" xml:space="preserve">
<style type="text/css">
	.st0{fill:#FFFFFF;}
</style>
<path class="st0" d="M447.6,3H64.4C28.9,3,0,31.9,0,67.4v377.2C0,480.1,28.9,509,64.4,509h383.1c35.5,0,64.4-28.9,64.4-64.4V301.7
	c0-5.5-4.5-10-10-10s-10,4.5-10,10v142.9c0,24.5-19.9,44.4-44.4,44.4H64.4C39.9,489,20,469.1,20,444.6V67.4C20,42.9,39.9,23,64.4,23
	h383.1c24.5,0,44.4,19.9,44.4,44.4v143.8c0,5.5,4.5,10,10,10s10-4.5,10-10V67.4C512,31.9,483.1,3,447.6,3z"/>
<path class="st0" d="M459.8,185c5.5,0,10-4.5,10-10s-4.5-10-10-10H346.9V52.2c0-5.5-4.5-10-10-10c-5.5,0-10,4.5-10,10V165h-142V52.2
	c0-5.5-4.5-10-10-10s-10,4.5-10,10V165H52.2c-5.5,0-10,4.5-10,10s4.5,10,10,10h112.7v142H52.2c-5.5,0-10,4.5-10,10s4.5,10,10,10
	h112.7v112.8c0,5.5,4.5,10,10,10s10-4.5,10-10V347h142v112.8c0,5.5,4.5,10,10,10c5.5,0,10-4.5,10-10V347h112.9c5.5,0,10-4.5,10-10
	s-4.5-10-10-10H346.9V185H459.8z M326.9,327h-142V185h142V327z"/>
<path class="st0" d="M59.5,298.1c2,2,4.5,2.9,7.1,2.9s5.1-1,7.1-2.9l24.5-24.5l24.5,24.5c2,2,4.5,2.9,7.1,2.9s5.1-1,7.1-2.9
	c3.9-3.9,3.9-10.2,0-14.1l-24.5-24.5l24.5-24.5c3.9-3.9,3.9-10.2,0-14.1c-3.9-3.9-10.2-3.9-14.1,0l-24.5,24.5l-24.5-24.5
	c-3.9-3.9-10.2-3.9-14.1,0c-3.9,3.9-3.9,10.2,0,14.1L84,259.4l-24.5,24.5C55.6,287.9,55.6,294.2,59.5,298.1z"/>
<path class="st0" d="M295.1,379.1c-3.9-3.9-10.2-3.9-14.1,0l-24.5,24.5L232,379.1c-3.9-3.9-10.2-3.9-14.1,0
	c-3.9,3.9-3.9,10.2,0,14.1l24.5,24.5l-24.5,24.5c-3.9,3.9-3.9,10.2,0,14.1c2,2,4.5,2.9,7.1,2.9c2.6,0,5.1-1,7.1-2.9l24.5-24.5
	l24.5,24.5c2,2,4.5,2.9,7.1,2.9s5.1-1,7.1-2.9c3.9-3.9,3.9-10.2,0-14.1l-24.5-24.5l24.5-24.5C299,389.4,299,383,295.1,379.1z"/>
<path class="st0" d="M59.5,136.6c2,2,4.5,2.9,7.1,2.9s5.1-1,7.1-2.9l24.5-24.5l24.5,24.5c2,2,4.5,2.9,7.1,2.9s5.1-1,7.1-2.9
	c3.9-3.9,3.9-10.2,0-14.1L112.3,98l24.5-24.5c3.9-3.9,3.9-10.2,0-14.1c-3.9-3.9-10.2-3.9-14.1,0L98.1,83.9L73.6,59.3
	c-3.9-3.9-10.2-3.9-14.1,0c-3.9,3.9-3.9,10.2,0,14.1L84,98l-24.5,24.5C55.6,126.4,55.6,132.7,59.5,136.6z"/>
<path class="st0" d="M256.2,313.4c30.6,0,55.4-24.9,55.4-55.4c0-30.6-24.9-55.4-55.4-55.4s-55.4,24.9-55.4,55.4
	C200.8,288.5,225.7,313.4,256.2,313.4z M256.2,222.5c19.5,0,35.4,15.9,35.4,35.4c0,19.5-15.9,35.4-35.4,35.4
	c-19.5,0-35.4-15.9-35.4-35.4C220.8,238.4,236.7,222.5,256.2,222.5z"/>
<path class="st0" d="M419.4,39.4c-30.6,0-55.4,24.9-55.4,55.4s24.9,55.4,55.4,55.4c30.6,0,55.4-24.9,55.4-55.4S450,39.4,419.4,39.4z
	 M419.4,130.3c-19.5,0-35.4-15.9-35.4-35.4c0-19.5,15.9-35.4,35.4-35.4c19.5,0,35.4,15.9,35.4,35.4
	C454.9,114.4,439,130.3,419.4,130.3z"/>
<path class="st0" d="M37,418.3c0,30.6,24.9,55.4,55.4,55.4c30.6,0,55.4-24.9,55.4-55.4c0-30.6-24.9-55.4-55.4-55.4
	C61.9,362.9,37,387.8,37,418.3z M127.9,418.3c0,19.5-15.9,35.4-35.4,35.4c-19.5,0-35.4-15.9-35.4-35.4c0-19.5,15.9-35.4,35.4-35.4
	C112,382.9,127.9,398.8,127.9,418.3z"/>
<path class="st0" d="M510.3,252.4c-3-4.6-9.4-5.8-13.9-2.8c-4.5,3-5.8,9.3-2.8,13.9c3,4.5,9.3,5.8,13.9,2.8
	C512.1,263.3,513.3,256.9,510.3,252.4z"/>
</svg>
